<svg xmlns="http://www.w3.org/2000/svg" xmlns:xlink="http://www.w3.org/1999/xlink" width="418.619" height="851.556" viewBox="0 0 418.619 851.556">
  <defs>
    <filter id="Line_91" x="82.775" y="560.291" width="46" height="123.285" filterUnits="userSpaceOnUse">
      <feOffset dx="-18" dy="9" input="SourceAlpha"/>
      <feGaussianBlur stdDeviation="7" result="blur"/>
      <feFlood flood-opacity="0.161"/>
      <feComposite operator="in" in2="blur"/>
      <feComposite in="SourceGraphic"/>
    </filter>
    <filter id="Line_92" x="310.249" y="567.788" width="46" height="104.727" filterUnits="userSpaceOnUse">
      <feOffset dx="-18" dy="9" input="SourceAlpha"/>
      <feGaussianBlur stdDeviation="7" result="blur-2"/>
      <feFlood flood-opacity="0.161"/>
      <feComposite operator="in" in2="blur-2"/>
      <feComposite in="SourceGraphic"/>
    </filter>
    <filter id="Union_8" x="82.985" y="8.216" width="334.465" height="766.617" filterUnits="userSpaceOnUse">
      <feOffset dy="6" input="SourceAlpha"/>
      <feGaussianBlur stdDeviation="3" result="blur-3"/>
      <feFlood flood-color="#707070" flood-opacity="0.325"/>
      <feComposite operator="in" in2="blur-3"/>
      <feComposite in="SourceGraphic"/>
    </filter>
    <linearGradient id="linear-gradient" x1="0.044" y1="0.716" x2="0.919" y2="0.252" gradientUnits="objectBoundingBox">
      <stop offset="0" stop-color="#f4f2f2"/>
      <stop offset="1" stop-color="#fff"/>
    </linearGradient>
    <filter id="Ellipse_85" x="175" y="458.521" width="239.619" height="239.619" filterUnits="userSpaceOnUse">
      <feOffset dx="-41" dy="40" input="SourceAlpha"/>
      <feGaussianBlur stdDeviation="21.5" result="blur-4"/>
      <feFlood flood-opacity="0.431"/>
      <feComposite operator="in" in2="blur-4"/>
    </filter>
    <filter id="Ellipse_85-2" x="175" y="458.521" width="239.619" height="239.619" filterUnits="userSpaceOnUse">
      <feOffset dx="-37" dy="24" input="SourceAlpha"/>
      <feGaussianBlur stdDeviation="19" result="blur-5"/>
      <feFlood flood-opacity="0.129" result="color"/>
      <feComposite operator="out" in="SourceGraphic" in2="blur-5"/>
      <feComposite operator="in" in="color"/>
      <feComposite operator="in" in2="SourceGraphic"/>
    </filter>
    <filter id="Ellipse_86" x="4" y="304.403" width="239.619" height="239.619" filterUnits="userSpaceOnUse">
      <feOffset dx="-41" dy="40" input="SourceAlpha"/>
      <feGaussianBlur stdDeviation="21.5" result="blur-6"/>
      <feFlood flood-opacity="0.431"/>
      <feComposite operator="in" in2="blur-6"/>
    </filter>
    <filter id="Ellipse_86-2" x="4" y="304.403" width="239.619" height="239.619" filterUnits="userSpaceOnUse">
      <feOffset dx="-37" dy="24" input="SourceAlpha"/>
      <feGaussianBlur stdDeviation="19" result="blur-7"/>
      <feFlood flood-opacity="0.129" result="color-2"/>
      <feComposite operator="out" in="SourceGraphic" in2="blur-7"/>
      <feComposite operator="in" in="color-2"/>
      <feComposite operator="in" in2="SourceGraphic"/>
    </filter>
    <filter id="Ellipse_88" x="179" y="154.563" width="239.619" height="239.619" filterUnits="userSpaceOnUse">
      <feOffset dx="-41" dy="40" input="SourceAlpha"/>
      <feGaussianBlur stdDeviation="21.5" result="blur-8"/>
      <feFlood flood-opacity="0.431"/>
      <feComposite operator="in" in2="blur-8"/>
    </filter>
    <filter id="Ellipse_88-2" x="179" y="154.563" width="239.619" height="239.619" filterUnits="userSpaceOnUse">
      <feOffset dx="-37" dy="24" input="SourceAlpha"/>
      <feGaussianBlur stdDeviation="19" result="blur-9"/>
      <feFlood flood-opacity="0.129" result="color-3"/>
      <feComposite operator="out" in="SourceGraphic" in2="blur-9"/>
      <feComposite operator="in" in="color-3"/>
      <feComposite operator="in" in2="SourceGraphic"/>
    </filter>
    <filter id="Ellipse_89" x="6.496" y="0" width="239.619" height="239.619" filterUnits="userSpaceOnUse">
      <feOffset dx="-41" dy="40" input="SourceAlpha"/>
      <feGaussianBlur stdDeviation="21.5" result="blur-10"/>
      <feFlood flood-opacity="0.431"/>
      <feComposite operator="in" in2="blur-10"/>
    </filter>
    <filter id="Ellipse_89-2" x="6.496" y="0" width="239.619" height="239.619" filterUnits="userSpaceOnUse">
      <feOffset dx="-37" dy="24" input="SourceAlpha"/>
      <feGaussianBlur stdDeviation="19" result="blur-11"/>
      <feFlood flood-opacity="0.129" result="color-4"/>
      <feComposite operator="out" in="SourceGraphic" in2="blur-11"/>
      <feComposite operator="in" in="color-4"/>
      <feComposite operator="in" in2="SourceGraphic"/>
    </filter>
    <filter id="Path_633" x="133.273" y="28.516" width="61.625" height="61.625" filterUnits="userSpaceOnUse">
      <feOffset dx="-3" dy="3" input="SourceAlpha"/>
      <feGaussianBlur stdDeviation="3.5" result="blur-12"/>
      <feFlood flood-opacity="0.161"/>
      <feComposite operator="in" in2="blur-12"/>
      <feComposite in="SourceGraphic"/>
    </filter>
    <filter id="Path_634" x="141.275" y="36.241" width="46.175" height="46.175" filterUnits="userSpaceOnUse">
      <feOffset dx="-3" dy="3" input="SourceAlpha"/>
      <feGaussianBlur stdDeviation="3.5" result="blur-13"/>
      <feFlood flood-opacity="0.161"/>
      <feComposite operator="in" in2="blur-13"/>
      <feComposite in="SourceGraphic"/>
    </filter>
    <filter id="Path_635" x="148.831" y="43.965" width="30.725" height="30.725" filterUnits="userSpaceOnUse">
      <feOffset dx="-3" dy="3" input="SourceAlpha"/>
      <feGaussianBlur stdDeviation="3.5" result="blur-14"/>
      <feFlood flood-opacity="0.161"/>
      <feComposite operator="in" in2="blur-14"/>
      <feComposite in="SourceGraphic"/>
    </filter>
    <filter id="Path_636" x="308.252" y="194.859" width="57.84" height="59.625" filterUnits="userSpaceOnUse">
      <feOffset dx="-3" dy="3" input="SourceAlpha"/>
      <feGaussianBlur stdDeviation="3.5" result="blur-15"/>
      <feFlood flood-opacity="0.161"/>
      <feComposite operator="in" in2="blur-15"/>
      <feComposite in="SourceGraphic"/>
    </filter>
    <filter id="Path_637" x="297" y="201.37" width="39.783" height="46.455" filterUnits="userSpaceOnUse">
      <feOffset dx="-3" dy="3" input="SourceAlpha"/>
      <feGaussianBlur stdDeviation="3.5" result="blur-16"/>
      <feFlood flood-opacity="0.161"/>
      <feComposite operator="in" in2="blur-16"/>
      <feComposite in="SourceGraphic"/>
    </filter>
    <filter id="Path_638" x="337.649" y="201.37" width="39.783" height="46.455" filterUnits="userSpaceOnUse">
      <feOffset dx="-3" dy="3" input="SourceAlpha"/>
      <feGaussianBlur stdDeviation="3.5" result="blur-17"/>
      <feFlood flood-opacity="0.161"/>
      <feComposite operator="in" in2="blur-17"/>
      <feComposite in="SourceGraphic"/>
    </filter>
    <filter id="Path_639" x="302.999" y="498.194" width="61.539" height="61.5" filterUnits="userSpaceOnUse">
      <feOffset dx="-3" dy="3" input="SourceAlpha"/>
      <feGaussianBlur stdDeviation="3.5" result="blur-18"/>
      <feFlood flood-opacity="0.161"/>
      <feComposite operator="in" in2="blur-18"/>
      <feComposite in="SourceGraphic"/>
    </filter>
    <filter id="Path_612" x="133.999" y="339.178" width="56.051" height="61.463" filterUnits="userSpaceOnUse">
      <feOffset dx="-3" dy="3" input="SourceAlpha"/>
      <feGaussianBlur stdDeviation="3.5" result="blur-19"/>
      <feFlood flood-opacity="0.161"/>
      <feComposite operator="in" in2="blur-19"/>
      <feComposite in="SourceGraphic"/>
    </filter>
    <filter id="Line_96" x="136.357" y="360.652" width="37.111" height="22" filterUnits="userSpaceOnUse">
      <feOffset dx="-3" dy="3" input="SourceAlpha"/>
      <feGaussianBlur stdDeviation="3.5" result="blur-20"/>
      <feFlood flood-opacity="0.161"/>
      <feComposite operator="in" in2="blur-20"/>
      <feComposite in="SourceGraphic"/>
    </filter>
    <filter id="Line_97" x="136.322" y="362.874" width="37.111" height="22" filterUnits="userSpaceOnUse">
      <feOffset dx="-3" dy="3" input="SourceAlpha"/>
      <feGaussianBlur stdDeviation="3.5" result="blur-21"/>
      <feFlood flood-opacity="0.161"/>
      <feComposite operator="in" in2="blur-21"/>
      <feComposite in="SourceGraphic"/>
    </filter>
    <filter id="Line_98" x="136.281" y="365.096" width="37.111" height="22" filterUnits="userSpaceOnUse">
      <feOffset dx="-3" dy="3" input="SourceAlpha"/>
      <feGaussianBlur stdDeviation="3.5" result="blur-22"/>
      <feFlood flood-opacity="0.161"/>
      <feComposite operator="in" in2="blur-22"/>
      <feComposite in="SourceGraphic"/>
    </filter>
    <filter id="Ellipse_85-3" x="0" y="611.937" width="239.619" height="239.619" filterUnits="userSpaceOnUse">
      <feOffset dx="-41" dy="40" input="SourceAlpha"/>
      <feGaussianBlur stdDeviation="21.5" result="blur-23"/>
      <feFlood flood-opacity="0.431"/>
      <feComposite operator="in" in2="blur-23"/>
    </filter>
    <filter id="Ellipse_85-4" x="0" y="611.937" width="239.619" height="239.619" filterUnits="userSpaceOnUse">
      <feOffset dx="-37" dy="24" input="SourceAlpha"/>
      <feGaussianBlur stdDeviation="19" result="blur-24"/>
      <feFlood flood-opacity="0.129" result="color-5"/>
      <feComposite operator="out" in="SourceGraphic" in2="blur-24"/>
      <feComposite operator="in" in="color-5"/>
      <feComposite operator="in" in2="SourceGraphic"/>
    </filter>
    <filter id="Path_640" x="126.357" y="662.88" width="32.587" height="40.311" filterUnits="userSpaceOnUse">
      <feOffset dx="-3" dy="3" input="SourceAlpha"/>
      <feGaussianBlur stdDeviation="3.5" result="blur-25"/>
      <feFlood flood-opacity="0.161"/>
      <feComposite operator="in" in2="blur-25"/>
      <feComposite in="SourceGraphic"/>
    </filter>
    <filter id="Path_641" x="142.001" y="639.977" width="32.587" height="63.485" filterUnits="userSpaceOnUse">
      <feOffset dx="-3" dy="3" input="SourceAlpha"/>
      <feGaussianBlur stdDeviation="3.5" result="blur-26"/>
      <feFlood flood-opacity="0.161"/>
      <feComposite operator="in" in2="blur-26"/>
      <feComposite in="SourceGraphic"/>
    </filter>
    <filter id="Path_642" x="157.314" y="655.693" width="32.587" height="48.036" filterUnits="userSpaceOnUse">
      <feOffset dx="-3" dy="3" input="SourceAlpha"/>
      <feGaussianBlur stdDeviation="3.5" result="blur-27"/>
      <feFlood flood-opacity="0.161"/>
      <feComposite operator="in" in2="blur-27"/>
      <feComposite in="SourceGraphic"/>
    </filter>
    <filter id="Line_85" x="120.81" y="681.784" width="74.245" height="22" filterUnits="userSpaceOnUse">
      <feOffset dx="-3" dy="3" input="SourceAlpha"/>
      <feGaussianBlur stdDeviation="3.5" result="blur-28"/>
      <feFlood flood-opacity="0.161"/>
      <feComposite operator="in" in2="blur-28"/>
      <feComposite in="SourceGraphic"/>
    </filter>
  </defs>
  <g id="Group_1365" data-name="Group 1365" transform="translate(-18855.241 3274.365)">
    <g transform="matrix(1, 0, 0, 1, 18855.24, -3274.36)" filter="url(#Line_91)">
      <line id="Line_91-2" data-name="Line 91" y1="77.285" transform="translate(123.77 574.29)" fill="none" stroke="#b8c6ce" stroke-linecap="round" stroke-width="4"/>
    </g>
    <g transform="matrix(1, 0, 0, 1, 18855.24, -3274.36)" filter="url(#Line_92)">
      <line id="Line_92-2" data-name="Line 92" y1="58.727" transform="translate(351.25 581.79)" fill="none" stroke="#b8c6ce" stroke-linecap="round" stroke-width="4"/>
    </g>
    <g transform="matrix(1, 0, 0, 1, 18855.24, -3274.36)" filter="url(#Union_8)">
      <path id="Union_8-2" data-name="Union 8" d="M0,679.247a67.426,67.426,0,0,1,78.327-66.481c19.322,1.789,48.811,5.029,70.406-14.751,18.38-16.837,26.744-30.614,28.893-46.683a67.6,67.6,0,0,1,.991-51.353c-2.886-12.516-9.965-21.609-25.722-36.042-23.953-21.942-58.753-22.731-77.767-23.231-.356.006-.717.008-1.076.008q-2.252,0-4.468-.146-1.812.11-3.649.11c-34.934,0-63.253-30.163-63.253-67.371S31,305.933,65.931,305.933q2.12,0,4.208.147,1.941-.111,3.911-.112,2.572,0,5.1.19c19.4.462,55.864,3.535,79.846-18.433,15.242-13.962,22.634-27.628,25.414-42.039a67.2,67.2,0,0,1-4.688-24.742q0-.28,0-.558c0-.206,0-.412,0-.619a67.367,67.367,0,0,1,2.978-19.874c-2.814-18.378-10.7-31.616-28.876-48.263-23.214-21.264-54.411-18.092-73.084-17.214q-3.3.326-6.688.328a67.372,67.372,0,1,1,67.373-67.372,68.07,68.07,0,0,1-.437,7.717c1.461,22.723-2.657,47.133,21.738,65.979,18.889,14.594,50.2,14.711,67.761,13.391a67.427,67.427,0,0,1,83.977,65.308c0,.2,0,.394,0,.588s0,.393,0,.588a67.423,67.423,0,0,1-88.081,64.127c-17.116-1.684-43.206-1.443-59.452,12.092-20.426,17.018-28.41,33.2-30.286,51.207a67.527,67.527,0,0,1-4.17,58.542c2.724,17.93,12.38,34.459,29.348,47.568,15.132,11.689,37.289,11.8,54.061,9.567A67.41,67.41,0,1,1,225.206,592.5c-16.79-1.037-48.028-.592-67.29,14.286-24.5,18.926-21.747,42.475-23.577,65.075a68.147,68.147,0,0,1,.4,7.386A67.372,67.372,0,1,1,0,679.245Z" transform="translate(92.99 12.21)" fill="#b8c6ce" stroke="rgba(255,255,255,0.25)" stroke-width="2"/>
    </g>
    <g data-type="innerShadowGroup">
      <g transform="matrix(1, 0, 0, 1, 18855.24, -3274.36)" filter="url(#Ellipse_85)">
        <g id="Ellipse_85-5" data-name="Ellipse 85" transform="translate(391.12 483.02) rotate(90)" stroke="rgba(255,255,255,0.52)" stroke-width="6" fill="url(#linear-gradient)">
          <circle cx="55.309" cy="55.309" r="55.309" stroke="none"/>
          <circle cx="55.309" cy="55.309" r="52.309" fill="none"/>
        </g>
      </g>
      <circle id="Ellipse_85-6" data-name="Ellipse 85" cx="55.309" cy="55.309" r="55.309" transform="translate(19246.359 -2791.344) rotate(90)" fill="url(#linear-gradient)"/>
      <g transform="matrix(1, 0, 0, 1, 18855.24, -3274.36)" filter="url(#Ellipse_85-2)">
        <circle id="Ellipse_85-7" data-name="Ellipse 85" cx="55.309" cy="55.309" r="55.309" transform="translate(391.12 483.02) rotate(90)" fill="#fff"/>
      </g>
      <g id="Ellipse_85-8" data-name="Ellipse 85" transform="translate(19246.359 -2791.344) rotate(90)" fill="none" stroke="rgba(255,255,255,0.52)" stroke-width="6">
        <circle cx="55.309" cy="55.309" r="55.309" stroke="none"/>
        <circle cx="55.309" cy="55.309" r="52.309" fill="none"/>
      </g>
    </g>
    <g data-type="innerShadowGroup">
      <g transform="matrix(1, 0, 0, 1, 18855.24, -3274.36)" filter="url(#Ellipse_86)">
        <g id="Ellipse_86-3" data-name="Ellipse 86" transform="translate(220.12 328.9) rotate(90)" stroke="rgba(255,255,255,0.52)" stroke-width="6" fill="url(#linear-gradient)">
          <circle cx="55.309" cy="55.309" r="55.309" stroke="none"/>
          <circle cx="55.309" cy="55.309" r="52.309" fill="none"/>
        </g>
      </g>
      <circle id="Ellipse_86-4" data-name="Ellipse 86" cx="55.309" cy="55.309" r="55.309" transform="translate(19075.359 -2945.462) rotate(90)" fill="url(#linear-gradient)"/>
      <g transform="matrix(1, 0, 0, 1, 18855.24, -3274.36)" filter="url(#Ellipse_86-2)">
        <circle id="Ellipse_86-5" data-name="Ellipse 86" cx="55.309" cy="55.309" r="55.309" transform="translate(220.12 328.9) rotate(90)" fill="#fff"/>
      </g>
      <g id="Ellipse_86-6" data-name="Ellipse 86" transform="translate(19075.359 -2945.462) rotate(90)" fill="none" stroke="rgba(255,255,255,0.52)" stroke-width="6">
        <circle cx="55.309" cy="55.309" r="55.309" stroke="none"/>
        <circle cx="55.309" cy="55.309" r="52.309" fill="none"/>
      </g>
    </g>
    <g data-type="innerShadowGroup">
      <g transform="matrix(1, 0, 0, 1, 18855.24, -3274.36)" filter="url(#Ellipse_88)">
        <g id="Ellipse_88-3" data-name="Ellipse 88" transform="translate(395.12 179.06) rotate(90)" stroke="rgba(255,255,255,0.52)" stroke-width="6" fill="url(#linear-gradient)">
          <circle cx="55.309" cy="55.309" r="55.309" stroke="none"/>
          <circle cx="55.309" cy="55.309" r="52.309" fill="none"/>
        </g>
      </g>
      <circle id="Ellipse_88-4" data-name="Ellipse 88" cx="55.309" cy="55.309" r="55.309" transform="translate(19250.359 -3095.302) rotate(90)" fill="url(#linear-gradient)"/>
      <g transform="matrix(1, 0, 0, 1, 18855.24, -3274.36)" filter="url(#Ellipse_88-2)">
        <circle id="Ellipse_88-5" data-name="Ellipse 88" cx="55.309" cy="55.309" r="55.309" transform="translate(395.12 179.06) rotate(90)" fill="#fff"/>
      </g>
      <g id="Ellipse_88-6" data-name="Ellipse 88" transform="translate(19250.359 -3095.302) rotate(90)" fill="none" stroke="rgba(255,255,255,0.52)" stroke-width="6">
        <circle cx="55.309" cy="55.309" r="55.309" stroke="none"/>
        <circle cx="55.309" cy="55.309" r="52.309" fill="none"/>
      </g>
    </g>
    <g data-type="innerShadowGroup">
      <g transform="matrix(1, 0, 0, 1, 18855.24, -3274.36)" filter="url(#Ellipse_89)">
        <g id="Ellipse_89-3" data-name="Ellipse 89" transform="translate(222.61 24.5) rotate(90)" stroke="rgba(255,255,255,0.52)" stroke-width="6" fill="url(#linear-gradient)">
          <circle cx="55.309" cy="55.309" r="55.309" stroke="none"/>
          <circle cx="55.309" cy="55.309" r="52.309" fill="none"/>
        </g>
      </g>
      <circle id="Ellipse_89-4" data-name="Ellipse 89" cx="55.309" cy="55.309" r="55.309" transform="translate(19077.855 -3249.865) rotate(90)" fill="url(#linear-gradient)"/>
      <g transform="matrix(1, 0, 0, 1, 18855.24, -3274.36)" filter="url(#Ellipse_89-2)">
        <circle id="Ellipse_89-5" data-name="Ellipse 89" cx="55.309" cy="55.309" r="55.309" transform="translate(222.61 24.5) rotate(90)" fill="#fff"/>
      </g>
      <g id="Ellipse_89-6" data-name="Ellipse 89" transform="translate(19077.855 -3249.865) rotate(90)" fill="none" stroke="rgba(255,255,255,0.52)" stroke-width="6">
        <circle cx="55.309" cy="55.309" r="55.309" stroke="none"/>
        <circle cx="55.309" cy="55.309" r="52.309" fill="none"/>
      </g>
    </g>
    <g id="Group_1586" data-name="Group 1586" transform="translate(0 -6)">
      <g transform="matrix(1, 0, 0, 1, 18855.24, -3268.36)" filter="url(#Path_633)">
        <path id="Path_633-2" data-name="Path 633" d="M41.621,22.312A19.312,19.312,0,1,1,22.309,3,19.312,19.312,0,0,1,41.621,22.312Z" transform="translate(144.78 34.02)" fill="none" stroke="#c7583b" stroke-linecap="round" stroke-linejoin="round" stroke-width="2"/>
      </g>
      <g transform="matrix(1, 0, 0, 1, 18855.24, -3268.36)" filter="url(#Path_634)">
        <path id="Path_634-2" data-name="Path 634" d="M32.175,20.587A11.587,11.587,0,1,1,20.587,9,11.587,11.587,0,0,1,32.175,20.587Z" transform="translate(146.77 35.74)" fill="none" stroke="#c7583b" stroke-linecap="round" stroke-linejoin="round" stroke-width="2"/>
      </g>
      <g transform="matrix(1, 0, 0, 1, 18855.24, -3268.36)" filter="url(#Path_635)">
        <path id="Path_635-2" data-name="Path 635" d="M22.726,18.862A3.862,3.862,0,1,1,18.863,15a3.862,3.862,0,0,1,3.862,3.862Z" transform="translate(148.33 37.47)" fill="none" stroke="#c7583b" stroke-linecap="round" stroke-linejoin="round" stroke-width="2"/>
      </g>
    </g>
    <g id="Group" transform="translate(18981.705 -3190.766)">
      <text id="AGREE_TARGET_AUDIENCE_FORMAT_AND_EDUCATIONAL_OBJECTIVES" data-name="AGREE TARGET AUDIENCE, 
FORMAT AND EDUCATIONAL
OBJECTIVES" transform="translate(41 3)" fill="#c7583b" font-size="8" font-family="Poppins-Regular, Poppins" letter-spacing="-0.03em"><tspan x="-44.4" y="0">Agree target audience, </tspan><tspan x="-45.356" y="12">format and educational</tspan><tspan x="-19.336" y="24">objectives</tspan></text>
    </g>
    <g id="Group_1587" data-name="Group 1587" transform="translate(-0.226)">
      <g transform="matrix(1, 0, 0, 1, 18855.47, -3274.36)" filter="url(#Path_636)">
        <path id="Path_636-2" data-name="Path 636" d="M38.978,37.463c-1.483-.529-3.9-.556-4.978-.966a7.033,7.033,0,0,1-2.3-1.072c-.384-.463-.384-3.773-.384-3.773a6.094,6.094,0,0,0,1.31-1.853,20.586,20.586,0,0,0,.636-3.64s.874.371,1.218-1.378c.291-1.511.847-2.3.7-3.415s-.768-.847-.768-.847.768-1.125.768-4.95c0-3.945-2.978-7.822-8.551-7.822s-8.564,3.892-8.564,7.822c0,3.825.756,4.95.756,4.95s-.622-.267-.768.847.4,1.906.7,3.415c.344,1.76,1.218,1.378,1.218,1.378a20.787,20.787,0,0,0,.636,3.64,6.094,6.094,0,0,0,1.31,1.853s0,3.309-.384,3.773a6.713,6.713,0,0,1-2.3,1.057c-1.059.41-3.481.463-4.978.993a9.341,9.341,0,0,0-6.061,8.9H45.027A9.323,9.323,0,0,0,38.978,37.463Z" transform="translate(313.56 194.61)" fill="#c7583b"/>
      </g>
      <g transform="matrix(1, 0, 0, 1, 18855.47, -3274.36)" filter="url(#Path_637)">
        <path id="Path_637-2" data-name="Path 637" d="M16.577,27.965S19.74,27.859,21,26.733c-2.052-3.111-.94-6.737-1.364-10.126s-2.343-5.4-6.181-5.4H13.4c-3.706,0-5.7,2.012-6.129,5.4s.756,7.413-1.35,10.126c1.257,1.138,4.434,1.1,4.434,1.1h0a6.646,6.646,0,0,1-.133,2.222,3.342,3.342,0,0,1-1.588.728,30.712,30.712,0,0,0-3.427.955,5.57,5.57,0,0,0-2.992,4.924H12.844c.291-1.059,2.29-2.952,4.236-3.944a8.888,8.888,0,0,1,3.269-.688s.5-.794-1.152-1.1a11.211,11.211,0,0,1-2.541-.889C16.4,29.752,16.577,27.965,16.577,27.965Z" transform="translate(308.28 197.66)" fill="#c7583b"/>
      </g>
      <g transform="matrix(1, 0, 0, 1, 18855.47, -3274.36)" filter="url(#Path_638)">
        <path id="Path_638-2" data-name="Path 638" d="M28.229,27.965s-3.164-.106-4.421-1.231c2.052-3.111.94-6.737,1.364-10.126s2.343-5.4,6.181-5.4H31.4c3.706,0,5.7,2.012,6.129,5.4s-.756,7.413,1.35,10.126c-1.257,1.138-4.434,1.1-4.434,1.1h0a6.646,6.646,0,0,0,.133,2.222,3.342,3.342,0,0,0,1.588.728,30.712,30.712,0,0,1,3.428.955,5.57,5.57,0,0,1,2.992,4.924H31.961c-.29-1.057-2.29-2.952-4.236-3.946a8.888,8.888,0,0,0-3.269-.688s-.5-.794,1.152-1.1a11.211,11.211,0,0,0,2.541-.889C28.4,29.752,28.229,27.965,28.229,27.965Z" transform="translate(327.34 197.66)" fill="#c7583b"/>
      </g>
    </g>
    <g id="Group-2" data-name="Group" transform="translate(19161.621 -3028.677)">
      <text id="Brainstorm_content" data-name="Brainstorm content" transform="translate(-4.881 9)" fill="#c7583b" font-size="8" font-family="Poppins-Regular, Poppins"><tspan x="0" y="0">Brainstorm content</tspan></text>
      <text id="and_format" data-name="and format" transform="translate(11.119 19.222)" fill="#c7583b" font-size="8" font-family="Poppins-Regular, Poppins"><tspan x="0" y="0">and format</tspan></text>
    </g>
    <text id="Develop_content" data-name="Develop content" transform="translate(18986.74 -2872.665)" fill="#c7583b" font-size="8" font-family="Poppins-Regular, Poppins"><tspan x="0" y="0">Develop content</tspan></text>
    <text id="_apply_for_accreditation_" data-name="(&amp; apply for accreditation)" transform="translate(19019.74 -2861.472)" fill="#c7583b" font-size="7" font-family="Poppins-Regular, Poppins"><tspan x="-21.605" y="0">(&amp; apply for </tspan><tspan x="-25.162" y="10">accreditation)</tspan></text>
    <g id="Group-3" data-name="Group" transform="translate(19170.814 -2720.964)">
      <text id="Disseminate" transform="translate(-4.075 5)" fill="#c7583b" font-size="8" font-family="Poppins-Regular, Poppins"><tspan x="0" y="0">Disseminate</tspan></text>
      <text id="programme" transform="translate(-4.075 15.222)" fill="#c7583b" font-size="8" font-family="Poppins-Regular, Poppins"><tspan x="0" y="0">programme</tspan></text>
    </g>
    <g transform="matrix(1, 0, 0, 1, 18855.24, -3274.36)" filter="url(#Path_639)">
      <path id="Path_639-2" data-name="Path 639" d="M36.194,31.807a3.956,3.956,0,0,0-2.616.928l-7.255-4.218a5.44,5.44,0,0,0,.253-1.689,6.328,6.328,0,0,0-4.64-6.072V8.356a4.342,4.342,0,0,0,2.7-4.05A4.451,4.451,0,0,0,20.248,0a4.317,4.317,0,0,0-1.519,8.353V20.67a6.749,6.749,0,0,0-3.037,1.689L8.605,18.308A4.325,4.325,0,1,0,4.3,22.02,3.98,3.98,0,0,0,7,21.007l7.087,4.05a5.751,5.751,0,0,0,0,3.375L6.918,32.565A4.124,4.124,0,0,0,4.3,31.637,4.6,4.6,0,0,0,0,36.194a4.334,4.334,0,1,0,8.605-.759L15.776,31.3a6.533,6.533,0,0,0,4.472,1.855A6.038,6.038,0,0,0,24.72,31.3l7.171,4.133a4.354,4.354,0,1,0,4.3-3.628" transform="translate(316.5 505.69)" fill="#c7583b"/>
    </g>
    <path id="Path_643" data-name="Path 643" d="M0,0H46.346V46.346H0Z" transform="translate(19052.217 -2606.292) rotate(90)" fill="none"/>
    <text id="Newsletter_Social_media_campaing" data-name="Newsletter Social media campaing" transform="translate(19266.959 -2614.685)" fill="#c7583b" font-size="9" font-family="Poppins-SemiBold, Poppins" font-weight="600"><tspan x="-149.139" y="0">E-mail newsletters social media </tspan><tspan font-family="Poppins-Regular, Poppins" font-weight="400"><tspan x="-47.043" y="13">campaign</tspan></tspan></text>
    <text id="Professional_society_collaboration" data-name="Professional society collaboration" transform="translate(19266.959 -2580.504)" fill="#c7583b" font-size="9" font-family="Poppins-SemiBold, Poppins" font-weight="600"><tspan x="-168.759" y="0">In collaboration with medical society</tspan><tspan x="-44.028" y="13">and PAGs</tspan></text>
    <g id="Group-4" data-name="Group" transform="translate(18985.639 -2709.614)">
      <text id="Share_" data-name="Share " transform="translate(-29 -16)" fill="#c7583b" font-size="9" font-family="Poppins-SemiBold, Poppins" font-weight="600"><tspan x="0" y="0">Share </tspan></text>
      <text id="with_supporter_" data-name="with supporter," transform="translate(0 -16)" fill="#c7583b" font-size="9" font-family="Poppins-Medium, Poppins" font-weight="500"><tspan x="0" y="0">with supporter,</tspan></text>
      <text id="accrediting_body_and_experts" data-name="accrediting body and experts" transform="translate(-29 -1.778)" fill="#c7583b" font-size="9" font-family="Poppins-Medium, Poppins" font-weight="500"><tspan x="0" y="0">accrediting body and experts</tspan></text>
    </g>
    <g id="Group_1588" data-name="Group 1588" transform="translate(-0.515 -5)">
      <g transform="matrix(1, 0, 0, 1, 18855.76, -3269.36)" filter="url(#Path_612)">
        <path id="Path_612-2" data-name="Path 612" d="M25.222.214a.751.751,0,0,0-.228-.157A.715.715,0,0,0,24.709,0H6.645A3.416,3.416,0,0,0,3.232,3.413V18.687H2.5a2.508,2.508,0,0,0-2.5,2.5v6.645a2.507,2.507,0,0,0,2.5,2.5h.728v6.711a3.415,3.415,0,0,0,3.412,3.412H31.639a3.416,3.416,0,0,0,3.412-3.412v-26.7a.724.724,0,0,0-.214-.515ZM2.5,28.883a1.052,1.052,0,0,1-1.052-1.052V21.191A1.052,1.052,0,0,1,2.5,20.139H18.51a1.052,1.052,0,0,1,1.052,1.052v6.645a1.052,1.052,0,0,1-1.052,1.053H2.5Zm31.1,8.163a1.964,1.964,0,0,1-1.961,1.961h-25a1.964,1.964,0,0,1-1.961-1.961V30.335H18.511a2.507,2.507,0,0,0,2.5-2.5v-6.64a2.506,2.506,0,0,0-2.5-2.5H4.68V3.413A1.964,1.964,0,0,1,6.64,1.452H23.98v6.2a3.416,3.416,0,0,0,3.412,3.412h6.2v25.98Z" transform="translate(147.5 346.68)" fill="#c7583b"/>
      </g>
      <g transform="matrix(1, 0, 0, 1, 18855.76, -3269.36)" filter="url(#Line_96)">
        <line id="Line_96-2" data-name="Line 96" x2="15.111" transform="translate(150.36 368.65)" fill="none" stroke="#e8a08d" stroke-linecap="round" stroke-width="1"/>
      </g>
      <g transform="matrix(1, 0, 0, 1, 18855.76, -3269.36)" filter="url(#Line_97)">
        <line id="Line_97-2" data-name="Line 97" x2="15.111" transform="translate(150.32 370.87)" fill="none" stroke="#e8a08d" stroke-linecap="round" stroke-width="1"/>
      </g>
      <g transform="matrix(1, 0, 0, 1, 18855.76, -3269.36)" filter="url(#Line_98)">
        <line id="Line_98-2" data-name="Line 98" x2="15.111" transform="translate(150.28 373.1)" fill="none" stroke="#e8a08d" stroke-linecap="round" stroke-width="1"/>
      </g>
    </g>
    <g data-type="innerShadowGroup">
      <g transform="matrix(1, 0, 0, 1, 18855.24, -3274.36)" filter="url(#Ellipse_85-3)">
        <g id="Ellipse_85-9" data-name="Ellipse 85" transform="translate(216.12 636.44) rotate(90)" stroke="rgba(255,255,255,0.52)" stroke-width="6" fill="url(#linear-gradient)">
          <circle cx="55.309" cy="55.309" r="55.309" stroke="none"/>
          <circle cx="55.309" cy="55.309" r="52.309" fill="none"/>
        </g>
      </g>
      <circle id="Ellipse_85-10" data-name="Ellipse 85" cx="55.309" cy="55.309" r="55.309" transform="translate(19071.359 -2637.927) rotate(90)" fill="url(#linear-gradient)"/>
      <g transform="matrix(1, 0, 0, 1, 18855.24, -3274.36)" filter="url(#Ellipse_85-4)">
        <circle id="Ellipse_85-11" data-name="Ellipse 85" cx="55.309" cy="55.309" r="55.309" transform="translate(216.12 636.44) rotate(90)" fill="#fff"/>
      </g>
      <g id="Ellipse_85-12" data-name="Ellipse 85" transform="translate(19071.359 -2637.927) rotate(90)" fill="none" stroke="rgba(255,255,255,0.52)" stroke-width="6">
        <circle cx="55.309" cy="55.309" r="55.309" stroke="none"/>
        <circle cx="55.309" cy="55.309" r="52.309" fill="none"/>
      </g>
    </g>
    <g id="Group_1590" data-name="Group 1590" transform="translate(0 3)">
      <g id="Group_1589" data-name="Group 1589" transform="translate(-0.771 -13.055)">
        <g transform="matrix(1, 0, 0, 1, 18856.01, -3264.31)" filter="url(#Path_640)">
          <path id="Path_640-2" data-name="Path 640" d="M11.656,45.311H3.931A1.945,1.945,0,0,1,2,43.378V27.931A1.945,1.945,0,0,1,3.931,26h7.725a1.945,1.945,0,0,1,1.931,1.931V43.378a1.945,1.945,0,0,1-1.931,1.931Z" transform="translate(137.86 644.38)" fill="#c7583b"/>
        </g>
        <g transform="matrix(1, 0, 0, 1, 18856.01, -3264.31)" filter="url(#Path_641)">
          <path id="Path_641-2" data-name="Path 641" d="M27.656,44.484H19.931A1.945,1.945,0,0,1,18,42.553V3.931A1.945,1.945,0,0,1,19.931,2h7.725a1.945,1.945,0,0,1,1.931,1.931V42.554a1.945,1.945,0,0,1-1.931,1.931Z" transform="translate(137.5 645.48)" fill="#c7583b"/>
        </g>
        <g transform="matrix(1, 0, 0, 1, 18856.01, -3264.31)" filter="url(#Path_642)">
          <path id="Path_642-2" data-name="Path 642" d="M43.656,45.036H35.931A1.945,1.945,0,0,1,34,43.1V19.931A1.945,1.945,0,0,1,35.931,18h7.725a1.945,1.945,0,0,1,1.931,1.931V43.1A1.945,1.945,0,0,1,43.656,45.036Z" transform="translate(136.81 645.19)" fill="#c7583b"/>
        </g>
        <g transform="matrix(1, 0, 0, 1, 18856.01, -3264.31)" filter="url(#Line_85)">
          <line id="Line_85-2" data-name="Line 85" x2="52.245" transform="translate(134.81 689.78)" fill="none" stroke="#c7583b" stroke-linecap="round" stroke-width="1"/>
        </g>
      </g>
      <text id="Measure_impact" data-name="Measure impact" transform="translate(18984.051 -2567.972)" fill="#c7583b" font-size="8" font-family="Poppins-Regular, Poppins"><tspan x="0" y="0">Measure impact</tspan></text>
      <text id="_reach_engagement_impact_" data-name="(reach, engagement, impact)" transform="translate(19016.051 -2555.349)" fill="#c7583b" font-size="7" font-family="Poppins-Regular, Poppins"><tspan x="-37.083" y="0">(reach, engagement,</tspan><tspan x="-14.186" y="10">impact)</tspan></text>
    </g>
  </g>
</svg>
