<svg id="svg8" xmlns="http://www.w3.org/2000/svg" viewBox="0 0 528.76 103.11"><defs><style>.cls-1{fill:#4c7a93;}.cls-2{fill:#4b7a96;}.cls-3{fill:#c7583b;}</style></defs><path class="cls-1" d="M9.24,25.17A28.25,28.25,0,0,1,20.3,14a32,32,0,0,1,16.06-4q11,0,18.85,5.81A27.84,27.84,0,0,1,65.69,31.64H49.13a13.37,13.37,0,0,0-5.24-5.9,14.73,14.73,0,0,0-7.7-2,14.37,14.37,0,0,0-11.27,4.85q-4.32,4.85-4.32,13t4.32,12.94a14.36,14.36,0,0,0,11.27,4.84,14.73,14.73,0,0,0,7.7-2,13.37,13.37,0,0,0,5.24-5.9H65.69A27.71,27.71,0,0,1,55.21,67.18q-7.83,5.76-18.85,5.76a32,32,0,0,1-16.06-4A28.32,28.32,0,0,1,9.24,57.8a33,33,0,0,1-4-16.29A33.24,33.24,0,0,1,9.24,25.17Z"/><path class="cls-1" d="M118.7,28.43q5.11,5.58,5.11,15.36V72.5h-15V45.82q0-4.93-2.56-7.66a10,10,0,0,0-13.74,0Q90,40.89,90,45.82V72.5H74.93V7.34H90V30a16.1,16.1,0,0,1,6.26-5.2,20,20,0,0,1,8.89-1.93Q113.59,22.84,118.7,28.43Z"/><path class="cls-1" d="M180.34,51.54H146.26a10.21,10.21,0,0,0,3,7A9,9,0,0,0,155.6,61q5.64,0,7.84-4.75h16A22.12,22.12,0,0,1,175,64.93,22.37,22.37,0,0,1,167,71a25.85,25.85,0,0,1-10.83,2.2,26.27,26.27,0,0,1-12.86-3.08,21.85,21.85,0,0,1-8.81-8.81,27.18,27.18,0,0,1-3.17-13.38,27.39,27.39,0,0,1,3.13-13.38,21.67,21.67,0,0,1,8.76-8.81,28.57,28.57,0,0,1,25.63-.09,21.49,21.49,0,0,1,8.67,8.55,25.83,25.83,0,0,1,3.13,12.94A37.48,37.48,0,0,1,180.34,51.54ZM165.2,43.18A7.74,7.74,0,0,0,162.55,37a9.73,9.73,0,0,0-6.6-2.29,9.51,9.51,0,0,0-6.38,2.21,9.76,9.76,0,0,0-3.22,6.25Z"/><path class="cls-1" d="M188.66,34.55a21.76,21.76,0,0,1,8.72-8.81,26.06,26.06,0,0,1,12.82-3.08q9.24,0,15.45,4.84t8.15,13.65h-16q-2-5.64-7.84-5.64a7.9,7.9,0,0,0-6.6,3.22c-1.65,2.15-2.47,5.21-2.47,9.2s.82,7.06,2.47,9.21a7.89,7.89,0,0,0,6.6,3.21q5.82,0,7.84-5.64h16a23,23,0,0,1-8.19,13.56q-6.26,4.94-15.41,4.93a26.06,26.06,0,0,1-12.82-3.08,21.7,21.7,0,0,1-8.72-8.81,27.5,27.5,0,0,1-3.12-13.38A27.5,27.5,0,0,1,188.66,34.55Z"/><path class="cls-1" d="M317.37,24.77a18.61,18.61,0,0,1,9.07-2.11,20.32,20.32,0,0,1,11,3.08,21.43,21.43,0,0,1,7.79,8.81,29.32,29.32,0,0,1,2.86,13.29,29.67,29.67,0,0,1-2.86,13.35,21.72,21.72,0,0,1-7.79,8.89,20.09,20.09,0,0,1-11,3.12,18.73,18.73,0,0,1-9-2.11,16.49,16.49,0,0,1-6.12-5.45V95.93H296.23V23.36h15.06v7A16.33,16.33,0,0,1,317.37,24.77ZM329.65,39a10.32,10.32,0,0,0-7.7-3.21A10.17,10.17,0,0,0,314.33,39c-2.09,2.17-3.12,5.13-3.12,8.89s1,6.73,3.12,8.9a10.56,10.56,0,0,0,15.28,0q3.17-3.32,3.17-8.95T329.65,39Z"/><path class="cls-1" d="M365.41,70.12a22.51,22.51,0,0,1-9.08-8.81A26.29,26.29,0,0,1,353,47.93a26.12,26.12,0,0,1,3.35-13.34,22.74,22.74,0,0,1,9.16-8.85,29.1,29.1,0,0,1,26.06,0,22.74,22.74,0,0,1,9.16,8.85,26.12,26.12,0,0,1,3.35,13.34,25.91,25.91,0,0,1-3.39,13.34,22.9,22.9,0,0,1-9.25,8.85,27.56,27.56,0,0,1-13.08,3.08A27,27,0,0,1,365.41,70.12ZM385.75,57q3-3.16,3-9.07t-2.95-9.07a10,10,0,0,0-14.57,0q-2.91,3.12-2.91,9.11T371.22,57a9.28,9.28,0,0,0,7.17,3.18A9.85,9.85,0,0,0,385.75,57Z"/><path class="cls-1" d="M427.18,23.36V72.5H412.12V23.36Zm.42-13.29a8,8,0,1,1-8-7.95A8,8,0,0,1,427.6,10.07Z"/><path class="cls-1" d="M481.82,28.43Q487,34,487,43.79V72.5H472V45.82q0-4.93-2.55-7.66a10,10,0,0,0-13.74,0q-2.55,2.73-2.55,7.66V72.5H438.1V23.36h15.06v6.52a15.85,15.85,0,0,1,6.16-5.15A19.65,19.65,0,0,1,468,22.84Q476.68,22.84,481.82,28.43Z"/><path class="cls-1" d="M524.25,59.73V72.5h-7.66q-8.19,0-12.77-4c-3.05-2.68-4.58-7-4.58-13.08V35.87h-6V23.36h6v-12H514.3v12h9.86V35.87H514.3V55.6a4.12,4.12,0,0,0,1.05,3.16,5.16,5.16,0,0,0,3.53,1Z"/><rect class="cls-2" x="108.81" y="90.16" width="177.63" height="3.32"/><rect class="cls-2" x="321" y="90.23" width="203.25" height="3.18"/><polygon class="cls-3" points="239.47 23.52 256.04 23.52 256.04 40.35 289.1 1.32 310.32 1.32 247.89 71.91 239.47 71.91 239.47 23.52"/><polygon class="cls-1" points="261.94 59.81 271.62 49.2 286.44 71.91 269.86 71.91 261.94 59.81"/><path class="cls-1" d="M6.44,87.42A8.12,8.12,0,0,1,9.5,84.3,9,9,0,0,1,14,83.16a8.71,8.71,0,0,1,5.26,1.6,7.53,7.53,0,0,1,2.92,4.39H17.55a4,4,0,0,0-1.46-1.66,3.8,3.8,0,0,0-2.13-.6,4.15,4.15,0,0,0-3.13,1.33,5.36,5.36,0,0,0-1.19,3.59,5.16,5.16,0,0,0,1.19,3.6A3.92,3.92,0,0,0,14,96.74a3.8,3.8,0,0,0,2.13-.6,4,4,0,0,0,1.46-1.66h4.59a7.53,7.53,0,0,1-2.92,4.39A8.7,8.7,0,0,1,14,100.46,8.92,8.92,0,0,1,9.5,99.33a7.66,7.66,0,0,1-3.06-3.12,9.36,9.36,0,0,1-1.13-4.53A7.71,7.71,0,0,1,6.44,87.42Z"/><path class="cls-1" d="M28.6,99.35a8.31,8.31,0,0,1-3.17-3.06,9,9,0,0,1,0-9,8.41,8.41,0,0,1,3.17-3.07,9.38,9.38,0,0,1,8.85,0,8.42,8.42,0,0,1,4.35,7.51,8.88,8.88,0,0,1-1.18,4.51,8.38,8.38,0,0,1-3.17,3.06,9.38,9.38,0,0,1-8.85,0Zm7.66-4a5.28,5.28,0,0,0,1.25-3.59,5,5,0,0,0-1.25-3.59,4.15,4.15,0,0,0-3.3-1.3,4.37,4.37,0,0,0-3.31,1.3,5.3,5.3,0,0,0-1.25,3.59,5,5,0,0,0,1.25,3.59A4.13,4.13,0,0,0,33,96.68,3.94,3.94,0,0,0,36.26,95.37Z"/><path class="cls-1" d="M53.07,100.46l-3.59-6.52h-1v6.52H44.29V83.16h7.05a7.72,7.72,0,0,1,3.46.74,4.9,4.9,0,0,1,2.13,1.93,5.4,5.4,0,0,1,.74,2.79,5,5,0,0,1-1,3.06,5.29,5.29,0,0,1-2.86,1.93l4,6.85ZM48.42,91H51a2.27,2.27,0,0,0,1.73-.6,2.16,2.16,0,0,0,.6-1.6,1.92,1.92,0,0,0-.6-1.53A2.25,2.25,0,0,0,51,86.69H48.42Z"/><path class="cls-3" d="M65.18,97.21l-4.34,3.25H71.56V97.21Z"/><path class="cls-1" d="M71.3,88.34A7.27,7.27,0,0,1,69.58,93a25.84,25.84,0,0,1-4.4,4.21l-4.34,3.25H59.69v-3l.76-.57h0c1.53-1.28,2.75-2.3,3.64-3.13a13.68,13.68,0,0,0,2.23-2.55,4.48,4.48,0,0,0,.9-2.62,2.29,2.29,0,0,0-.45-1.53,1.61,1.61,0,0,0-1.34-.51,1.63,1.63,0,0,0-1.4.64,3.22,3.22,0,0,0-.51,1.91h-3.9a6.58,6.58,0,0,1,.9-3.32,5,5,0,0,1,2.17-2,6.46,6.46,0,0,1,2.93-.64,5.78,5.78,0,0,1,4.22,1.47A5,5,0,0,1,71.3,88.34Z"/><path class="cls-3" d="M78.64,86.56V90h5.65v3.26H78.64v3.79H85v3.39H74.45V83.16H85v3.4Z"/><path class="cls-3" d="M99.07,84.29a7.67,7.67,0,0,1,3.11,3,9.09,9.09,0,0,1,1.13,4.51,9.24,9.24,0,0,1-1.13,4.5A7.44,7.44,0,0,1,99,99.4a9.85,9.85,0,0,1-4.71,1.06H87.86V83.16h6.43A10.19,10.19,0,0,1,99.07,84.29ZM97.74,95.43a4.93,4.93,0,0,0,1.33-3.65,5.19,5.19,0,0,0-1.33-3.71A5.08,5.08,0,0,0,94,86.74H92v10h2A5.19,5.19,0,0,0,97.74,95.43Z"/></svg>