<svg xmlns="http://www.w3.org/2000/svg" width="24.577" height="24.574" viewBox="0 0 24.577 24.574">
  <path id="Icon_ionic-ios-clock" data-name="Icon ionic-ios-clock" d="M24.351,6.973a12.289,12.289,0,1,0,0,17.379A12.293,12.293,0,0,0,24.351,6.973ZM5.832,16.123a.473.473,0,1,1,.372-.372A.472.472,0,0,1,5.832,16.123ZM7.38,20.979a.471.471,0,1,1,.136-.5A.472.472,0,0,1,7.38,20.979Zm.136-10.131a.47.47,0,1,1-.136-.5A.473.473,0,0,1,7.516,10.848Zm3.633,13.557a.47.47,0,1,1-.136-.5A.473.473,0,0,1,11.149,24.405ZM11.013,7.422a.471.471,0,1,1,.136-.5A.472.472,0,0,1,11.013,7.422ZM13.1,11.929a.473.473,0,0,1,.809-.49l1.991,3.68a1.915,1.915,0,0,1,.23.9v7.207a.473.473,0,1,1-.945,0V16.017a.972.972,0,0,0-.112-.449Zm2.652,14.119a.473.473,0,1,1,.372-.372A.472.472,0,0,1,15.756,26.047Zm0-19.849a.473.473,0,1,1,.372-.372A.472.472,0,0,1,15.756,6.2Zm5.181,18.413a.471.471,0,1,1,.136-.5A.472.472,0,0,1,20.937,24.612Zm.136-17.4a.47.47,0,1,1-.136-.5A.473.473,0,0,1,21.073,7.215Zm3.633,13.557a.47.47,0,1,1-.136-.5A.473.473,0,0,1,24.706,20.772Zm-.136-9.718a.471.471,0,1,1,.136-.5A.472.472,0,0,1,24.57,11.055Zm1.111,5.068a.473.473,0,1,1,.372-.372A.472.472,0,0,1,25.681,16.123Z" transform="translate(-3.372 -3.375)" fill="#c7583b"/>
</svg>
