<svg xmlns="http://www.w3.org/2000/svg" xmlns:xlink="http://www.w3.org/1999/xlink" width="43" height="43" viewBox="0 0 43 43">
  <defs>
    <clipPath id="clip-path">
      <rect id="Rectangle_389" data-name="Rectangle 389" width="19.72" height="5.74" transform="translate(0 0)" fill="#fff"/>
    </clipPath>
  </defs>
  <g id="Group_1272" data-name="Group 1272" transform="translate(-351.685 -197)">
    <g id="Group_1271" data-name="Group 1271" transform="translate(352 197)">
      <circle id="Ellipse_75" data-name="Ellipse 75" cx="21.5" cy="21.5" r="21.5" transform="translate(-0.315)" fill="rgba(201,86,62,0.15)"/>
      <circle id="Ellipse_76" data-name="Ellipse 76" cx="16.5" cy="16.5" r="16.5" transform="translate(4.685 5)" fill="#c9563e"/>
    </g>
    <g id="Group_1359" data-name="Group 1359" transform="translate(363.325 215.63)">
      <g id="Group_1358" data-name="Group 1358" clip-path="url(#clip-path)">
        <path id="Path_1347" data-name="Path 1347" d="M12.74,2.87A2.87,2.87,0,1,1,9.87,0a2.87,2.87,0,0,1,2.87,2.87M2.87,0A2.87,2.87,0,1,0,5.74,2.87,2.87,2.87,0,0,0,2.87,0m14,0a2.87,2.87,0,1,0,2.85,2.89V2.87A2.879,2.879,0,0,0,16.87,0" fill="#fff"/>
      </g>
    </g>
  </g>
</svg>
