<svg id="Livello_1" data-name="Livello 1" xmlns="http://www.w3.org/2000/svg" viewBox="0 0 702.15 199.95"><defs><style>.cls-1{fill:#4c7a93;}.cls-2{fill:#c7583b;}</style></defs><path class="cls-1" d="M228.78,170.83h-43.5v-6h40.53C226.67,166.82,227.66,168.81,228.78,170.83Z"/><polygon class="cls-2" points="373.68 67.71 373.68 113.67 354.68 124.06 354.68 57.32 373.68 67.71"/><path class="cls-1" d="M442.86,97.49l-7.38,4-61.8,33.8-8.23,4.5a7.27,7.27,0,0,1-10.77-6.38v-9.38l19-10.39h0l42-23-42-23-19-10.39V48.07a7.35,7.35,0,0,1,10.88-6.45l8.12,4.44,61.81,33.8,7.37,4A7.75,7.75,0,0,1,442.86,97.49Z"/><path class="cls-1" d="M202.94,52.23Q213,63.17,213,82.25v56.07H183.76V86.2q0-9.63-5-15t-13.41-5.33q-8.43,0-13.42,5.33t-5,15v52.12H117.54v-96H147V55.07A31.12,31.12,0,0,1,159,45a38.23,38.23,0,0,1,17-3.7Q192.88,41.31,202.94,52.23Z"/><path class="cls-1" d="M302.43,42.43V60.24l-2.84-4.62a29.89,29.89,0,0,0-11.5-10.56A32.23,32.23,0,0,0,280,42a41.28,41.28,0,0,0-9.37-1A39.35,39.35,0,0,0,249.38,47a41.36,41.36,0,0,0-15,17c-3.69,7.39-5.56,16.1-5.56,25.92s1.87,18.57,5.56,26a42,42,0,0,0,15,17.18,39,39,0,0,0,21.21,6A35.34,35.34,0,0,0,288,135a32,32,0,0,0,11.61-10.67l2.83-4.42V139c0,8.26-2,14.41-6,18.28s-9.35,5.8-16,5.8a26,26,0,0,1-13.84-3.48,15.94,15.94,0,0,1-7.05-8.68H232.69a38.51,38.51,0,0,0,5.61,15.41,36.88,36.88,0,0,0,4.92,6.15,41.3,41.3,0,0,0,4.15,3.61c8.73,6.64,20.34,10,34.5,10,10.59,0,19.54-2.12,26.61-6.31a41.75,41.75,0,0,0,9.19-7.3,39.8,39.8,0,0,0,6.6-9.58,54.08,54.08,0,0,0,5.22-23.9V42.43Zm-6.68,66.48a22.51,22.51,0,0,1-32.71-.09c-4.43-4.68-6.67-11-6.67-18.94s2.24-14.22,6.69-18.78a22.71,22.71,0,0,1,32.69.09,22.72,22.72,0,0,1,5,8.21,32,32,0,0,1,1.68,10.65C302.43,97.94,300.18,104.29,295.75,108.91Z"/><path class="cls-1" d="M460,170.83H333c1.12-2,2.11-4,3-6H457C457.87,166.82,458.86,168.81,460,170.83Z"/><path class="cls-1" d="M673.1,164.83v6H564.23c1.12-2,2.11-4,3-6Z"/><path class="cls-1" d="M533.63,42.43V60.24l-2.84-4.62a29.89,29.89,0,0,0-11.5-10.56,32.09,32.09,0,0,0-8.13-3,41.28,41.28,0,0,0-9.37-1A39.35,39.35,0,0,0,480.58,47a41.36,41.36,0,0,0-15,17c-3.68,7.39-5.56,16.1-5.56,25.92s1.88,18.57,5.56,26a42,42,0,0,0,15,17.18,39,39,0,0,0,21.21,6,35.31,35.31,0,0,0,17.4-4.12,32,32,0,0,0,11.61-10.67l2.83-4.42V139c0,8.26-2,14.41-6,18.28s-9.35,5.8-16,5.8a26,26,0,0,1-13.84-3.48,15.94,15.94,0,0,1-7.05-8.68H463.89a38.51,38.51,0,0,0,5.61,15.41,36.44,36.44,0,0,0,4.93,6.15,41.18,41.18,0,0,0,4.14,3.61c8.73,6.64,20.34,10,34.5,10,10.59,0,19.54-2.12,26.61-6.31a41.75,41.75,0,0,0,9.19-7.3,39.8,39.8,0,0,0,6.6-9.58,54.08,54.08,0,0,0,5.22-23.9V42.43ZM527,108.91a22.51,22.51,0,0,1-32.71-.09c-4.43-4.68-6.67-11-6.67-18.94s2.24-14.22,6.69-18.78a22.71,22.71,0,0,1,32.69.09,22.72,22.72,0,0,1,5,8.21,32,32,0,0,1,1.68,10.65C533.63,97.94,531.38,104.29,527,108.91Z"/><path class="cls-1" d="M673.78,97.38H607.21q.69,9,5.77,13.68a17.61,17.61,0,0,0,12.47,4.73q11,0,15.3-9.29h31.31a43.2,43.2,0,0,1-24.43,28.89,50.44,50.44,0,0,1-21.15,4.3,51.38,51.38,0,0,1-25.11-6,42.7,42.7,0,0,1-17.2-17.2Q578,105.29,578,90.33t6.1-26.14A42.21,42.21,0,0,1,601.2,47q11-6,25.28-6a51.44,51.44,0,0,1,24.77,5.84A42,42,0,0,1,668.19,63.5q6.1,10.83,6.1,25.28A76,76,0,0,1,673.78,97.38ZM644.2,81q0-7.56-5.17-12a19,19,0,0,0-12.9-4.47,18.68,18.68,0,0,0-12.47,4.3q-5.07,4.31-6.27,12.21Z"/><path class="cls-1" d="M48.92,40.5V65H88.37V87.71H48.92v26.53H93.54v23.6H19.46V16.9H93.54V40.5Z"/><path class="cls-1" d="M20.11,161.23a12.23,12.23,0,0,1,4.6-4.7,13.68,13.68,0,0,1,6.71-1.7,13,13,0,0,1,7.9,2.4,11.32,11.32,0,0,1,4.4,6.6h-6.9a6,6,0,0,0-2.2-2.5,5.71,5.71,0,0,0-3.2-.9,6.19,6.19,0,0,0-4.7,2,8,8,0,0,0-1.81,5.4,7.66,7.66,0,0,0,1.81,5.4,5.86,5.86,0,0,0,4.7,2,5.71,5.71,0,0,0,3.2-.9,6,6,0,0,0,2.2-2.5h6.9a11.32,11.32,0,0,1-4.4,6.6,13,13,0,0,1-7.9,2.4,13.4,13.4,0,0,1-6.71-1.7,11.57,11.57,0,0,1-4.6-4.7,14,14,0,0,1-1.7-6.8A11.58,11.58,0,0,1,20.11,161.23Z"/><path class="cls-1" d="M53.42,179.16a12.46,12.46,0,0,1-4.76-4.61,13.51,13.51,0,0,1,0-13.44,12.46,12.46,0,0,1,4.76-4.61,14.08,14.08,0,0,1,13.3,0,12.42,12.42,0,0,1,4.77,4.61,12.68,12.68,0,0,1,1.78,6.67,13.3,13.3,0,0,1-1.78,6.77,12.42,12.42,0,0,1-4.77,4.61,14.08,14.08,0,0,1-13.3,0Zm11.52-6a8,8,0,0,0,1.88-5.4,7.49,7.49,0,0,0-1.88-5.4,6.23,6.23,0,0,0-5-2,6.55,6.55,0,0,0-5,2,8,8,0,0,0-1.89,5.4,7.5,7.5,0,0,0,1.89,5.4,6.21,6.21,0,0,0,5,2A5.93,5.93,0,0,0,64.94,173.18Z"/><path class="cls-1" d="M90.22,180.83l-5.4-9.8h-1.5v9.8H77v-26H87.62a11.75,11.75,0,0,1,5.2,1.1,7.55,7.55,0,0,1,3.2,2.9,8.21,8.21,0,0,1,1.1,4.2,7.46,7.46,0,0,1-1.5,4.6,7.89,7.89,0,0,1-4.3,2.9l6,10.3Zm-7-14.3h3.9a3.42,3.42,0,0,0,2.6-.9,3.24,3.24,0,0,0,.9-2.4,2.87,2.87,0,0,0-.9-2.3,3.39,3.39,0,0,0-2.6-.8h-3.9Z"/><path class="cls-2" d="M108.41,175.94l-6.53,4.89H118v-4.89Z"/><path class="cls-1" d="M117.62,162.6a11,11,0,0,1-2.59,7,38.42,38.42,0,0,1-6.62,6.33l-6.53,4.89h-1.72v-4.51l1.15-.86h0c2.3-1.92,4.13-3.46,5.47-4.7a21.07,21.07,0,0,0,3.36-3.84,6.72,6.72,0,0,0,1.34-3.94,3.46,3.46,0,0,0-.67-2.3,2.41,2.41,0,0,0-2-.77,2.48,2.48,0,0,0-2.11,1,4.89,4.89,0,0,0-.77,2.88h-5.85a9.93,9.93,0,0,1,1.34-5,7.51,7.51,0,0,1,3.27-3,9.48,9.48,0,0,1,4.41-1,8.62,8.62,0,0,1,6.34,2.2A7.56,7.56,0,0,1,117.62,162.6Z"/><path class="cls-2" d="M128.65,159.93v5.2h8.5V170h-8.5v5.7h9.6v5.1h-15.9v-26h15.9v5.1Z"/><path class="cls-2" d="M159.36,156.52A11.59,11.59,0,0,1,164,161.1a13.66,13.66,0,0,1,1.69,6.78,13.94,13.94,0,0,1-1.69,6.78,11.25,11.25,0,0,1-4.78,4.58,14.78,14.78,0,0,1-7.08,1.59h-9.66v-26h9.66A15.25,15.25,0,0,1,159.36,156.52Zm-2,16.74a7.36,7.36,0,0,0,2-5.48,7.78,7.78,0,0,0-2-5.58,7.58,7.58,0,0,0-5.58-2h-3v15h3A7.75,7.75,0,0,0,157.36,173.26Z"/></svg>