<svg xmlns="http://www.w3.org/2000/svg" xmlns:xlink="http://www.w3.org/1999/xlink" width="20.117" height="18.852" viewBox="0 0 20.117 18.852">
  <defs>
    <clipPath id="clip-path">
      <rect id="Rectangle_378" data-name="Rectangle 378" width="20.117" height="18.852" fill="#c9563e"/>
    </clipPath>
  </defs>
  <g id="Group_1252" data-name="Group 1252" clip-path="url(#clip-path)">
    <path id="Path_633" data-name="Path 633" d="M19.489,128.443H15.572a2.612,2.612,0,0,0-5.07,0H.629a.629.629,0,0,0,0,1.257H10.5a2.612,2.612,0,0,0,5.07,0h3.917a.629.629,0,0,0,0-1.257m-6.453,1.987a1.358,1.358,0,1,1,.96-.4,1.358,1.358,0,0,1-.96.4" transform="translate(0 -119.646)" fill="#c9563e"/>
    <path id="Path_634" data-name="Path 634" d="M19.491,1.982H10.114a2.612,2.612,0,0,0-5.07,0H.631a.629.629,0,1,0,0,1.257h4.4a2.612,2.612,0,0,0,5.07,0H19.49a.629.629,0,1,0,0-1.257ZM7.581,3.966a1.358,1.358,0,1,1,.957-.4,1.358,1.358,0,0,1-.957.4Z" transform="translate(-0.002 0)" fill="#c9563e"/>
    <path id="Path_635" data-name="Path 635" d="M19.491,254.912H10.114a2.612,2.612,0,0,0-5.07,0H.631a.629.629,0,1,0,0,1.257h4.4a2.612,2.612,0,0,0,5.07,0H19.49a.629.629,0,1,0,0-1.257ZM7.581,256.9a1.361,1.361,0,1,1,.957-.4,1.358,1.358,0,0,1-.957.4Z" transform="translate(-0.002 -239.301)" fill="#c9563e"/>
  </g>
</svg>
