<svg xmlns="http://www.w3.org/2000/svg" width="24.576" height="24.576" viewBox="0 0 24.576 24.576">
  <path id="Icon_awesome-globe-americas" data-name="Icon awesome-globe-americas" d="M12.288.563A12.288,12.288,0,1,0,24.577,12.851,12.288,12.288,0,0,0,12.288.563Zm4.077,17.719-.56.559a1.184,1.184,0,0,0-.306.531c-.075.28-.135.564-.236.836L14.4,22.528a9.9,9.9,0,0,1-2.113.232V21.4a3.71,3.71,0,0,0-1.121-2.539,1.586,1.586,0,0,1-.464-1.121V16.157a1.58,1.58,0,0,0-.816-1.386c-.712-.394-1.725-.944-2.419-1.294A7.143,7.143,0,0,1,5.9,12.4l-.04-.036a5.688,5.688,0,0,1-.895-1.028C4.5,10.654,3.744,9.532,3.252,8.8A9.964,9.964,0,0,1,8.365,3.754l1.19.6A.793.793,0,0,0,10.7,3.64V3.08a9.9,9.9,0,0,1,1.209-.12l1.4,1.4a.793.793,0,0,1,0,1.121l-.232.232-.512.512a.4.4,0,0,0,0,.56l.232.232a.4.4,0,0,1,0,.56l-.4.4a.4.4,0,0,1-.28.116h-.445a.4.4,0,0,0-.276.112l-.492.478a.4.4,0,0,0-.078.461l.772,1.545a.4.4,0,0,1-.354.574h-.279a.4.4,0,0,1-.26-.1l-.46-.4a.794.794,0,0,0-.77-.154l-1.544.515a.592.592,0,0,0-.077,1.092l.549.275a3.356,3.356,0,0,0,1.5.355c.521,0,1.119,1.352,1.586,1.586H14.8a1.587,1.587,0,0,1,1.121.464l.678.678a1.511,1.511,0,0,1,.442,1.069,2.306,2.306,0,0,1-.68,1.634Zm4.3-4.526a1.189,1.189,0,0,1-.7-.494l-.891-1.336a1.188,1.188,0,0,1,0-1.319l.971-1.456a1.188,1.188,0,0,1,.458-.4l.643-.322a9.6,9.6,0,0,1,.966,5.692Z" transform="translate(0 -0.563)" fill="#c7583b"/>
</svg>
