<svg id="svg3176" xmlns="http://www.w3.org/2000/svg" viewBox="0 0 155.83 45.04"><defs><style>.cls-1{isolation:isolate;}.cls-2{fill:#333;}.cls-3{fill:#c7583b;}.cls-4{fill:#4c7a93;}</style></defs><g class="cls-1"><path class="cls-2" d="M9.17,36.15v1.13H7.58V42H6.15V37.28H4.57V36.15Z"/><path class="cls-2" d="M14.85,36.15V42H13.42V39.57H11.19V42H9.77V36.15h1.42v2.28h2.23V36.15Z"/><path class="cls-2" d="M17.25,37.28v1.23h2v1.07h-2v1.31h2.24V42H15.83V36.15h3.66v1.13Z"/><path class="cls-2" d="M27,36.15V42H25.61V39.57H23.38V42H22V36.15h1.42v2.28h2.23V36.15Z"/><path class="cls-2" d="M29.44,37.28v1.23h2v1.07h-2v1.31h2.24V42H28V36.15h3.66v1.13Z"/><path class="cls-2" d="M36.12,41h-2.2L33.55,42H32.06l2.15-5.83h1.64L38,42H36.49Zm-.36-1.08L35,37.71l-.74,2.16Z"/><path class="cls-2" d="M41.57,42,40.3,39.81H40V42H38.55V36.15H41a2.64,2.64,0,0,1,1.18.24,1.65,1.65,0,0,1,.72.66,1.9,1.9,0,0,1,.24,1,1.74,1.74,0,0,1-.35,1.09,1.81,1.81,0,0,1-1,.61L43.14,42ZM40,38.83h.88a.93.93,0,0,0,.63-.18.75.75,0,0,0,.2-.56.74.74,0,0,0-.21-.55.85.85,0,0,0-.62-.19H40Z"/><path class="cls-2" d="M48.06,36.15v1.13h-1.6V42H45V37.28H43.45V36.15Z"/><path class="cls-2" d="M54.62,36.44a2.89,2.89,0,0,1,1.07,1.07,3.3,3.3,0,0,1,0,3.11,2.87,2.87,0,0,1-1.08,1.08,3.15,3.15,0,0,1-3,0,2.85,2.85,0,0,1-1.07-1.08,3.3,3.3,0,0,1,0-3.11,2.89,2.89,0,0,1,1.07-1.07,3.17,3.17,0,0,1,3,0ZM52,37.83a1.78,1.78,0,0,0-.41,1.24A1.81,1.81,0,0,0,52,40.3a1.59,1.59,0,0,0,2.22,0,1.76,1.76,0,0,0,.41-1.23,1.73,1.73,0,0,0-.41-1.23,1.39,1.39,0,0,0-1.11-.46A1.45,1.45,0,0,0,52,37.83Z"/><path class="cls-2" d="M60.71,36.15v1.13H58.3v1.29h1.86v1.08H58.3V42H56.88V36.15Z"/><path class="cls-2" d="M69.71,36.19V42H68.29V38.38L67,42H65.8l-1.27-3.65V42H63.1V36.19h1.74l1.59,4.06L68,36.19Z"/><path class="cls-2" d="M72.12,37.28v1.23h2v1.07h-2v1.31h2.23V42H70.69V36.15h3.66v1.13Z"/><path class="cls-2" d="M80.07,40.61a2.59,2.59,0,0,1-1.06,1,3.38,3.38,0,0,1-1.63.37H75.16V36.15h2.22a3.47,3.47,0,0,1,1.63.36,2.57,2.57,0,0,1,1.06,1,3.37,3.37,0,0,1,0,3.07Zm-1.53-.3a1.86,1.86,0,0,0,0-2.47,1.75,1.75,0,0,0-1.29-.45h-.67v3.36h.67A1.74,1.74,0,0,0,78.54,40.31Z"/><path class="cls-2" d="M82.67,36.15V42H81.25V36.15Z"/><path class="cls-2" d="M88.2,36.68a2.73,2.73,0,0,1,1,1.6H87.64a1.31,1.31,0,0,0-.51-.64,1.39,1.39,0,0,0-.82-.24,1.25,1.25,0,0,0-1,.46,2.1,2.1,0,0,0,0,2.44,1.24,1.24,0,0,0,1,.45,1.37,1.37,0,0,0,1.33-.86h1.51a2.77,2.77,0,0,1-1,1.59,2.88,2.88,0,0,1-1.86.59,3,3,0,0,1-1.51-.37,2.69,2.69,0,0,1-1-1.06,3.44,3.44,0,0,1-.35-1.56,3.37,3.37,0,0,1,.35-1.55,2.56,2.56,0,0,1,1-1.06,3,3,0,0,1,1.51-.38A2.94,2.94,0,0,1,88.2,36.68Z"/><path class="cls-2" d="M93.59,41H91.38L91,42h-1.5l2.15-5.83h1.64L95.46,42H94Zm-.37-1.08-.73-2.16-.74,2.16Z"/><path class="cls-2" d="M97.43,40.94h1.9V42H96V36.15h1.42Z"/><path class="cls-2" d="M103.07,37.28v1.23h2v1.07h-2v1.31h2.24V42h-3.66V36.15h3.66v1.13Z"/><path class="cls-2" d="M111,40.61a2.62,2.62,0,0,1-1.07,1,3.35,3.35,0,0,1-1.63.37h-2.22V36.15h2.22a3.51,3.51,0,0,1,1.64.36,2.63,2.63,0,0,1,1.06,1,3.37,3.37,0,0,1,0,3.07Zm-1.53-.3a1.89,1.89,0,0,0,0-2.47,1.78,1.78,0,0,0-1.29-.45h-.68v3.36h.68A1.77,1.77,0,0,0,109.5,40.31Z"/><path class="cls-2" d="M113.58,36.15v3.39a1.32,1.32,0,0,0,.27.89.94.94,0,0,0,.76.31,1,1,0,0,0,.76-.31,1.37,1.37,0,0,0,.26-.89V36.15h1.42v3.39a2.87,2.87,0,0,1-.32,1.4,2.17,2.17,0,0,1-.89.86,2.76,2.76,0,0,1-1.27.28,2.61,2.61,0,0,1-1.24-.28,2,2,0,0,1-.85-.86,2.87,2.87,0,0,1-.31-1.4V36.15Z"/><path class="cls-2" d="M122.54,36.68a2.68,2.68,0,0,1,.95,1.6H122a1.31,1.31,0,0,0-.51-.64,1.41,1.41,0,0,0-.82-.24,1.27,1.27,0,0,0-1,.46,1.87,1.87,0,0,0-.38,1.22,1.85,1.85,0,0,0,.38,1.22,1.26,1.26,0,0,0,1,.45,1.41,1.41,0,0,0,.82-.23,1.38,1.38,0,0,0,.51-.63h1.5a2.72,2.72,0,0,1-.95,1.59,2.84,2.84,0,0,1-1.86.59,2.93,2.93,0,0,1-1.5-.37,2.62,2.62,0,0,1-1-1.06,3.32,3.32,0,0,1-.36-1.56,3.25,3.25,0,0,1,.36-1.55,2.5,2.5,0,0,1,1-1.06,2.93,2.93,0,0,1,1.5-.38A2.9,2.9,0,0,1,122.54,36.68Z"/><path class="cls-2" d="M127.93,41h-2.2L125.36,42h-1.49L126,36.19h1.64L129.81,42H128.3Zm-.36-1.08-.74-2.16-.74,2.16Z"/><path class="cls-2" d="M134.58,36.15v1.13H133V42h-1.43V37.28H130V36.15Z"/><path class="cls-2" d="M136.6,36.15V42h-1.42V36.15Z"/><path class="cls-2" d="M141.88,36.44A2.89,2.89,0,0,1,143,37.51a3.3,3.3,0,0,1,0,3.11,2.87,2.87,0,0,1-1.08,1.08,3,3,0,0,1-1.5.38,3.1,3.1,0,0,1-1.5-.38,2.92,2.92,0,0,1-1.07-1.08,3.3,3.3,0,0,1,0-3.11,3.06,3.06,0,0,1,4.08-1.07Zm-2.61,1.39a1.74,1.74,0,0,0-.42,1.24,1.77,1.77,0,0,0,.42,1.23,1.41,1.41,0,0,0,1.1.45,1.45,1.45,0,0,0,1.11-.45,1.77,1.77,0,0,0,.42-1.23,1.73,1.73,0,0,0-.42-1.23,1.39,1.39,0,0,0-1.11-.46A1.41,1.41,0,0,0,139.27,37.83Z"/><path class="cls-2" d="M149.36,42h-1.42l-2.38-3.6V42h-1.42V36.15h1.42l2.38,3.64V36.15h1.42Z"/></g><path class="cls-3" d="M93.37,24.08l-6.78,5.08h16.74V24.08Z"/><path class="cls-4" d="M5.37,9.51A12.34,12.34,0,0,1,10,4.76,13.76,13.76,0,0,1,16.79,3a13.11,13.11,0,0,1,8,2.43,11.4,11.4,0,0,1,4.45,6.67h-7A6.06,6.06,0,0,0,20,9.61a5.74,5.74,0,0,0-3.23-.91,6.26,6.26,0,0,0-4.75,2,8.11,8.11,0,0,0-1.82,5.46A7.73,7.73,0,0,0,12,21.63a5.91,5.91,0,0,0,4.75,2A5.82,5.82,0,0,0,20,22.75a6.13,6.13,0,0,0,2.23-2.53h7a11.43,11.43,0,0,1-4.45,6.67,13.1,13.1,0,0,1-8,2.42A13.48,13.48,0,0,1,10,27.6a11.69,11.69,0,0,1-4.65-4.75A14.17,14.17,0,0,1,3.65,16,11.73,11.73,0,0,1,5.37,9.51Z"/><path class="cls-4" d="M38.18,27.63a12.85,12.85,0,0,1-6.62-11.5,12.84,12.84,0,0,1,6.62-11.4,14.21,14.21,0,0,1,13.44,0,12.58,12.58,0,0,1,4.81,4.66,12.74,12.74,0,0,1,1.81,6.74A13.36,13.36,0,0,1,56.43,23a12.65,12.65,0,0,1-4.81,4.66,14.28,14.28,0,0,1-13.44,0Zm11.63-6.05a8,8,0,0,0,1.91-5.45,7.56,7.56,0,0,0-1.91-5.46,6.27,6.27,0,0,0-5-2,6.61,6.61,0,0,0-5,2,8,8,0,0,0-1.91,5.46,7.53,7.53,0,0,0,1.91,5.45,6.24,6.24,0,0,0,5,2A5.94,5.94,0,0,0,49.81,21.58Z"/><path class="cls-4" d="M75,29.16l-5.39-9.79h-1.5v9.79H61.82v-26H72.4a11.75,11.75,0,0,1,5.2,1.1,7.52,7.52,0,0,1,3.19,2.9,8.17,8.17,0,0,1,1.1,4.19,7.46,7.46,0,0,1-1.5,4.6,7.82,7.82,0,0,1-4.29,2.89l6,10.29ZM68,14.88H71.9a3.42,3.42,0,0,0,2.6-.9,3.24,3.24,0,0,0,.9-2.4,2.83,2.83,0,0,0-.9-2.29,3.39,3.39,0,0,0-2.6-.8H68Z"/><path class="cls-4" d="M102.42,10.85a11,11,0,0,1-2.61,7,38,38,0,0,1-6.65,6.36l-6.55,4.92H84.87V24.63L86,23.76h0c2.31-1.92,4.14-3.47,5.49-4.72a20.6,20.6,0,0,0,3.38-3.86,6.72,6.72,0,0,0,1.35-3.95,3.49,3.49,0,0,0-.68-2.31,2.41,2.41,0,0,0-2-.77,2.48,2.48,0,0,0-2.12,1A4.94,4.94,0,0,0,90.66,12H84.78a9.81,9.81,0,0,1,1.35-5A7.55,7.55,0,0,1,89.4,4a9.73,9.73,0,0,1,4.44-1,8.63,8.63,0,0,1,6.36,2.22A7.55,7.55,0,0,1,102.42,10.85Z"/><path class="cls-3" d="M113.37,8.29v5.19h8.49v4.89h-8.49v5.7H123v5.09H107.08v-26H123v5.1Z"/><path class="cls-3" d="M144,4.88a11.51,11.51,0,0,1,4.67,4.58,13.6,13.6,0,0,1,1.69,6.77A13.86,13.86,0,0,1,148.71,23a11.17,11.17,0,0,1-4.77,4.58,14.85,14.85,0,0,1-7.07,1.59h-9.65v-26h9.65A15.3,15.3,0,0,1,144,4.88Zm-2,16.72a7.39,7.39,0,0,0,2-5.47,7.78,7.78,0,0,0-2-5.57,7.61,7.61,0,0,0-5.57-2h-3v15h3A7.81,7.81,0,0,0,142.05,21.6Z"/></svg>