<?xml version="1.0" encoding="UTF-8"?>
<svg id="Layer_2" data-name="Layer 2" xmlns="http://www.w3.org/2000/svg" viewBox="0 0 570.61 174.74">
  <defs>
    <style>
      .cls-1 {
        fill: none;
        stroke: #587d99;
        stroke-linecap: square;
        stroke-width: .9px;
      }

      .cls-2 {
        fill: #587d99;
      }

      .cls-2, .cls-3 {
        stroke-width: 0px;
      }

      .cls-3 {
        fill: #cc643d;
      }
    </style>
  </defs>
  <g id="Calque_1" data-name="Calque 1">
    <g>
      <line class="cls-1" x1=".45" y1="167.14" x2="446.4" y2="167.14"/>
      <path class="cls-3" d="m554.56,162.51v-2.96h-9.3v15.18h9.3v-2.96h-5.6v-3.33h4.95v-2.86h-4.95v-3.07h5.6Zm8.09-2.96h-5.69v15.18h5.69c1.59,0,2.98-.32,4.19-.95,1.2-.63,2.13-1.53,2.79-2.68.66-1.15.98-2.47.98-3.96s-.33-2.82-.98-3.97c-.66-1.15-1.58-2.04-2.78-2.67-1.2-.64-2.6-.95-4.2-.95m-.24,11.98h-1.75v-8.82h1.75c1.4,0,2.49.39,3.27,1.17.78.78,1.17,1.87,1.17,3.27s-.39,2.48-1.17,3.24c-.78.76-1.87,1.15-3.27,1.15"/>
      <path class="cls-2" d="m485.07,167.15c0,1.47.32,2.77.95,3.91.63,1.14,1.52,2.03,2.65,2.67,1.13.64,2.42.96,3.86.96,1.76,0,3.27-.46,4.52-1.38,1.25-.92,2.09-2.19,2.52-3.79h-3.98c-.3.62-.71,1.09-1.26,1.42-.54.33-1.16.49-1.85.49-1.11,0-2.02-.39-2.7-1.16-.69-.77-1.04-1.81-1.04-3.11s.35-2.33,1.04-3.11c.69-.77,1.59-1.16,2.7-1.16.69,0,1.31.16,1.85.49.54.32.96.8,1.26,1.42h3.98c-.42-1.61-1.26-2.87-2.52-3.81-1.25-.93-2.76-1.39-4.52-1.39-1.44,0-2.72.32-3.86.96-1.14.64-2.02,1.54-2.65,2.68-.63,1.15-.95,2.46-.95,3.92m23.74,7.59c1.39,0,2.67-.32,3.83-.97,1.16-.65,2.07-1.55,2.75-2.72.68-1.16,1.01-2.47,1.01-3.92s-.33-2.75-1-3.91c-.67-1.15-1.59-2.06-2.75-2.71-1.16-.65-2.44-.97-3.84-.97s-2.68.32-3.84.97c-1.16.65-2.09,1.55-2.77,2.71-.68,1.16-1.03,2.46-1.03,3.91s.34,2.76,1.03,3.92c.68,1.16,1.61,2.07,2.77,2.72,1.16.65,2.44.97,3.84.97m0-3.3c-1.2,0-2.15-.39-2.87-1.17-.71-.78-1.07-1.83-1.07-3.14s.35-2.37,1.07-3.15c.71-.78,1.67-1.16,2.87-1.16s2.13.39,2.84,1.17c.71.78,1.07,1.83,1.07,3.14s-.36,2.34-1.07,3.13c-.71.79-1.66,1.18-2.84,1.18"/>
      <path class="cls-2" d="m532.66,172.11v2.62l4.83-2.87c1.57-1.2,2.86-2.42,3.87-3.68,1.01-1.26,1.52-2.62,1.52-4.09,0-1.35-.42-2.44-1.26-3.28-.84-.84-2.08-1.26-3.73-1.26-.96,0-1.83.19-2.61.56-.78.37-1.42.95-1.89,1.73-.48.78-.73,1.76-.76,2.93h3.43c0-.71.15-1.27.45-1.66.3-.39.71-.59,1.24-.59s.92.16,1.19.47c.26.32.4.76.4,1.32,0,.74-.27,1.51-.81,2.29-.54.78-1.2,1.53-1.99,2.25-.78.72-1.86,1.63-3.22,2.74.04-.03-.17.14-.64.52"/>
      <polygon class="cls-3" points="537.49 171.86 532.66 174.73 543.11 174.73 543.11 171.86 537.49 171.86"/>
      <path class="cls-2" d="m530.59,174.72l-3.5-6.01c1.11-.33,1.95-.89,2.52-1.69.57-.79.85-1.69.85-2.7,0-.89-.21-1.7-.63-2.43-.42-.73-1.05-1.3-1.89-1.72-.84-.42-1.86-.63-3.06-.63h-6.21v15.18h3.7v-5.73h.89l3.16,5.73h4.17Zm-8.22-12.11h2.29c.68,0,1.19.17,1.53.5.34.33.51.79.51,1.36,0,.61-.17,1.07-.51,1.41-.34.33-.85.5-1.53.5h-2.29v-3.76Z"/>
      <path class="cls-2" d="m478.12,159.7l-3.95,7.73-3.97-7.73h-1.73l4.93,9.1v5.79h1.53v-5.79l4.89-9.1h-1.7Zm-16.24,13.64h-3.65v-5.82h3.58c1.09,0,1.96.27,2.61.8.65.53.97,1.25.97,2.14s-.31,1.6-.93,2.11c-.62.51-1.48.77-2.59.77m-3.65-12.38h3.49c1.08,0,1.9.23,2.46.7.56.47.84,1.12.84,1.94s-.28,1.5-.84,1.97c-.56.48-1.36.71-2.39.71h-3.56v-5.33Zm5.61,5.94c.8-.23,1.45-.63,1.96-1.2.51-.57.76-1.32.76-2.25,0-1.11-.4-2.01-1.21-2.71-.81-.7-1.98-1.04-3.53-1.04h-5.13v14.89h5.28c1.03,0,1.92-.17,2.66-.52s1.31-.82,1.69-1.43c.38-.6.58-1.28.58-2.03,0-.92-.3-1.73-.89-2.43-.6-.7-1.32-1.12-2.18-1.28"/>
      <path class="cls-2" d="m541.39,134.78h24.41V23.68h-24.41v111.09Zm-42.12-39.83c0,6.09-1.69,10.9-5.07,14.42-3.38,3.52-7.5,5.28-12.35,5.28s-8.97-1.79-12.35-5.35c-3.38-3.57-5.07-8.4-5.07-14.49s1.69-10.87,5.07-14.35c3.38-3.47,7.5-5.21,12.35-5.21s8.97,1.76,12.35,5.28c3.38,3.52,5.07,8.33,5.07,14.42m-59.68-.14c0,8.19,1.55,15.4,4.64,21.63,3.09,6.24,7.3,11.04,12.64,14.42,5.33,3.38,11.23,5.07,17.7,5.07,5.61,0,10.54-1.14,14.78-3.43,4.23-2.29,7.54-5.28,9.92-9v11.28h24.42V55.11h-24.42v11.28c-2.28-3.71-5.54-6.71-9.78-9-4.24-2.28-9.16-3.43-14.78-3.43-6.57,0-12.52,1.67-17.85,5-5.33,3.33-9.54,8.09-12.64,14.28-3.09,6.19-4.64,13.37-4.64,21.56m-86.38.14c0,8.28,1.69,15.52,5.07,21.7,3.38,6.19,8.09,10.95,14.13,14.28,6.04,3.33,12.97,5,20.77,5,9.9,0,18.23-2.66,24.99-8,6.76-5.33,11.18-12.66,13.28-21.99h-25.99c-2.19,6.09-6.42,9.14-12.71,9.14-4.48,0-8.04-1.74-10.71-5.21-2.67-3.47-4-8.45-4-14.92s1.33-11.44,4-14.92c2.66-3.47,6.23-5.21,10.71-5.21,6.28,0,10.52,3.05,12.71,9.14h25.99c-2.1-9.52-6.5-16.89-13.21-22.13-6.71-5.23-15.06-7.85-25.06-7.85-7.8,0-14.73,1.67-20.77,5-6.05,3.33-10.76,8.09-14.13,14.28-3.38,6.19-5.07,13.42-5.07,21.7m-37.26,39.83h24.41V55.11h-24.41v79.67Zm-42.12-39.83c0,6.09-1.69,10.9-5.07,14.42-3.38,3.52-7.49,5.28-12.35,5.28s-8.97-1.79-12.35-5.35c-3.38-3.57-5.07-8.4-5.07-14.49s1.69-10.87,5.07-14.35c3.38-3.47,7.5-5.21,12.35-5.21s8.97,1.76,12.35,5.28c3.38,3.52,5.07,8.33,5.07,14.42m-59.68-.14c0,8.19,1.55,15.4,4.64,21.63,3.09,6.24,7.3,11.04,12.64,14.42,5.33,3.38,11.28,5.07,17.85,5.07,5.61,0,10.54-1.14,14.78-3.43,4.23-2.29,7.49-5.33,9.78-9.14v11.42h24.41V29.13h-24.41v36.98c-2.48-3.71-5.88-6.66-10.21-8.85-4.33-2.19-9.12-3.28-14.35-3.28-6.57,0-12.52,1.67-17.85,5-5.33,3.33-9.54,8.09-12.64,14.28-3.1,6.19-4.64,13.37-4.64,21.56m-63.53-7.57c.66-4.38,2.4-7.76,5.21-10.14,2.81-2.38,6.26-3.57,10.35-3.57s7.85,1.24,10.71,3.71c2.85,2.48,4.28,5.81,4.28,9.99h-30.55Zm55.54,6.43c0-8-1.69-14.99-5.07-20.99-3.38-6-8.07-10.61-14.06-13.85-6-3.24-12.85-4.86-20.56-4.86s-14.9,1.67-20.99,5c-6.09,3.33-10.83,8.09-14.21,14.28-3.38,6.19-5.07,13.42-5.07,21.7s1.71,15.52,5.14,21.7c3.43,6.19,8.18,10.95,14.28,14.28,6.09,3.33,13.04,5,20.85,5,6.47,0,12.33-1.19,17.56-3.57,5.23-2.38,9.59-5.66,13.06-9.85,3.47-4.19,5.88-8.9,7.21-14.13h-25.98c-2.38,5.14-6.62,7.71-12.71,7.71-4.09,0-7.54-1.31-10.35-3.93-2.81-2.62-4.4-6.4-4.78-11.35h55.25c.29-2.47.43-4.85.43-7.14m-121.36-59.11l-27.84,69.39L28.84,34.55H0v100.23h24.41v-60.25l22.56,60.25h19.7l22.42-60.11v60.11h24.41V34.55h-28.7Z"/>
      <path class="cls-3" d="m328.23,46.83c4.19,0,7.64-1.26,10.35-3.78,2.71-2.52,4.07-5.64,4.07-9.35s-1.36-6.97-4.07-9.49c-2.71-2.52-6.16-3.78-10.35-3.78s-7.78,1.26-10.49,3.78c-2.71,2.52-4.07,5.69-4.07,9.49s1.36,6.83,4.07,9.35c2.71,2.52,6.21,3.78,10.49,3.78"/>
      <path class="cls-2" d="m511.07,40.83c2.29,0,4.3-.37,6.03-1.11,1.73-.74,3.06-1.76,3.99-3.05.92-1.29,1.39-2.77,1.39-4.42-.03-1.95-.55-3.51-1.54-4.67-.99-1.16-2.15-2-3.46-2.52-1.31-.52-3.01-1.05-5.1-1.59-1.82-.4-3.15-.81-4.01-1.21-.86-.4-1.29-1.01-1.29-1.82,0-.67.27-1.2.81-1.59.54-.39,1.31-.58,2.32-.58,1.18,0,2.13.29,2.85.86.72.57,1.15,1.35,1.29,2.32h7.97c-.3-2.89-1.47-5.22-3.51-6.97-2.04-1.75-4.82-2.62-8.35-2.62-2.39,0-4.45.39-6.18,1.16-1.73.77-3.05,1.83-3.94,3.15-.89,1.33-1.34,2.8-1.34,4.42,0,1.92.49,3.44,1.46,4.57.98,1.13,2.14,1.95,3.48,2.47,1.35.52,3.03,1.02,5.05,1.49,1.89.47,3.25.9,4.09,1.29.84.39,1.26.98,1.26,1.79,0,.67-.3,1.22-.88,1.64-.59.42-1.42.63-2.5.63-1.18,0-2.17-.3-2.98-.91-.81-.6-1.26-1.4-1.36-2.37h-8.53c.13,1.82.76,3.46,1.87,4.92,1.11,1.46,2.62,2.62,4.54,3.46,1.92.84,4.11,1.26,6.56,1.26m-24.43-23.88v-4.69h-8.63v28.16h8.63v-13.07c0-2.32.54-3.94,1.62-4.87,1.08-.92,2.69-1.39,4.85-1.39h2.37v-9.14c-1.85,0-3.53.45-5.05,1.34-1.51.89-2.78,2.11-3.79,3.66m-23.52,23.47h8.63V12.27h-8.63v28.16Zm-14.89-14.08c0,2.15-.6,3.85-1.79,5.1-1.2,1.24-2.65,1.87-4.37,1.87s-3.17-.63-4.37-1.89c-1.19-1.26-1.79-2.97-1.79-5.12s.6-3.84,1.79-5.07c1.19-1.23,2.65-1.84,4.37-1.84s3.17.62,4.37,1.87c1.19,1.24,1.79,2.94,1.79,5.1m-21.1-.05c0,2.89.55,5.44,1.64,7.65,1.09,2.2,2.58,3.9,4.47,5.1,1.88,1.19,3.97,1.79,6.26,1.79,1.98,0,3.73-.4,5.22-1.21,1.5-.81,2.67-1.87,3.51-3.18v3.99h8.63V12.27h-8.63v3.99c-.81-1.31-1.96-2.37-3.46-3.18-1.5-.81-3.24-1.21-5.23-1.21-2.32,0-4.42.59-6.31,1.77-1.89,1.18-3.37,2.86-4.47,5.05-1.09,2.19-1.64,4.73-1.64,7.62m-2.32-14.03h-4.64v-.25c0-1.48.34-2.51,1.01-3.08.67-.57,1.83-.81,3.48-.71V.91c-.3-.03-.77-.05-1.41-.05-3.84,0-6.75.9-8.73,2.7-1.99,1.8-2.98,4.43-2.98,7.9v.81h-3.13v7.17h3.13v21h8.63v-21h4.64v-7.17Zm-18.17,0h-4.64v-.25c0-1.48.34-2.51,1.01-3.08.67-.57,1.83-.81,3.48-.71V.91c-.3-.03-.78-.05-1.41-.05-3.84,0-6.75.9-8.73,2.7-1.99,1.8-2.98,4.43-2.98,7.9v.81h-3.13v7.17h3.13v21h8.63v-21h4.64v-7.17Zm-40.23,15.24l4.34-12.97,4.39,12.97h-8.73Zm13.07,12.92h9.14l-12.82-35.43h-9.99l-12.82,35.43h9.04l2.12-6.26h13.22l2.12,6.26Z"/>
      <path class="cls-3" d="m467.46,9.34c1.48,0,2.7-.45,3.66-1.34.96-.89,1.44-1.99,1.44-3.31s-.48-2.46-1.44-3.36c-.96-.89-2.18-1.34-3.66-1.34s-2.75.45-3.71,1.34c-.96.89-1.44,2.01-1.44,3.36s.48,2.42,1.44,3.31c.96.89,2.2,1.34,3.71,1.34"/>
      <polygon class="cls-3" points="315.96 134.78 340.37 134.78 340.37 55.11 315.96 134.78"/>
    </g>
  </g>
</svg>