<svg id="Group_1191" data-name="Group 1191" xmlns="http://www.w3.org/2000/svg" xmlns:xlink="http://www.w3.org/1999/xlink" width="22.334" height="25.782" viewBox="0 0 22.334 25.782">
  <defs>
    <clipPath id="clip-path">
      <rect id="Rectangle_294" data-name="Rectangle 294" width="22.334" height="25.783" fill="none"/>
    </clipPath>
  </defs>
  <g id="Group_773" data-name="Group 773" transform="translate(0 0)" clip-path="url(#clip-path)">
    <path id="Path_612" data-name="Path 612" d="M16.071.137a.478.478,0,0,0-.145-.1A.455.455,0,0,0,15.744,0H4.234A2.176,2.176,0,0,0,2.059,2.175v9.732H1.6A1.6,1.6,0,0,0,0,13.5v4.234a1.6,1.6,0,0,0,1.6,1.6h.464v4.277a2.176,2.176,0,0,0,2.174,2.174H20.159a2.176,2.176,0,0,0,2.174-2.174V6.594a.461.461,0,0,0-.137-.328ZM1.595,18.4a.67.67,0,0,1-.67-.67V13.5a.67.67,0,0,1,.67-.67h10.2a.67.67,0,0,1,.67.67v4.234a.67.67,0,0,1-.67.67H1.6Zm19.814,5.2a1.252,1.252,0,0,1-1.25,1.25H4.234a1.252,1.252,0,0,1-1.25-1.25V19.329H11.8a1.6,1.6,0,0,0,1.595-1.6V13.5a1.6,1.6,0,0,0-1.6-1.595H2.982V2.175A1.252,1.252,0,0,1,4.231.925H15.28V4.878a2.176,2.176,0,0,0,2.174,2.174h3.952V23.605Z" transform="translate(0 0)" fill="#e8a08d"/>
    <path id="Path_613" data-name="Path 613" d="M6.442,27.147a3.877,3.877,0,0,0-.791-.048H4.583v3.3H5.25V29.155h.434a3.683,3.683,0,0,0,.692-.048.938.938,0,0,0,.346-.158A.919.919,0,0,0,7,28.624a1.09,1.09,0,0,0,.109-.509,1.025,1.025,0,0,0-.191-.643A.87.87,0,0,0,6.442,27.147Zm-.1,1.231a.43.43,0,0,1-.209.161,1.759,1.759,0,0,1-.527.052H5.244v-.934h.322a3.273,3.273,0,0,1,.479.021.458.458,0,0,1,.267.145.43.43,0,0,1,.106.3A.418.418,0,0,1,6.345,28.378Z" transform="translate(-2.22 -13.129)" fill="#c7583b"/>
    <path id="Path_614" data-name="Path 614" d="M12.878,27.466a1.108,1.108,0,0,0-.5-.3,2.342,2.342,0,0,0-.628-.064H10.537v3.3H11.79a2.02,2.02,0,0,0,.588-.07,1.169,1.169,0,0,0,.467-.263,1.458,1.458,0,0,0,.352-.583,2.2,2.2,0,0,0,.1-.7A2.4,2.4,0,0,0,13.188,28a1.322,1.322,0,0,0-.309-.537Zm-.334,1.886a.683.683,0,0,1-.176.319.617.617,0,0,1-.27.136,1.81,1.81,0,0,1-.4.03h-.5V27.653h.3a3,3,0,0,1,.546.03.651.651,0,0,1,.309.155.74.74,0,0,1,.188.318,1.974,1.974,0,0,1,.066.589A2.046,2.046,0,0,1,12.545,29.352Z" transform="translate(-5.105 -13.129)" fill="#c7583b"/>
    <path id="Path_615" data-name="Path 615" d="M17,30.4h.667v-1.4h1.377v-.558H17.67v-.779h1.6V27.1H17Z" transform="translate(-8.238 -13.13)" fill="#c7583b"/>
  </g>
</svg>
