<svg xmlns="http://www.w3.org/2000/svg" xmlns:xlink="http://www.w3.org/1999/xlink" width="38.914" height="37.905" viewBox="0 0 38.914 37.905">
  <defs>
    <clipPath id="clip-path">
      <rect id="Rectangle_343" data-name="Rectangle 343" width="38.914" height="37.905" transform="translate(0 0)" fill="none"/>
    </clipPath>
  </defs>
  <g id="Group_955" data-name="Group 955" transform="translate(0 0)">
    <g id="Group_954" data-name="Group 954" clip-path="url(#clip-path)">
      <path id="Path_627" data-name="Path 627" d="M38.914,4.24V33.665c0,2.338-2.216,4.24-4.939,4.24H23.55a1.216,1.216,0,0,1,0-2.432H33.975c1.359,0,2.506-.828,2.506-1.808V4.24c0-.98-1.148-1.807-2.506-1.807H23.55A1.216,1.216,0,0,1,23.55,0H33.975C36.7,0,38.914,1.9,38.914,4.24ZM28.068,18.11,18.531,8.2a1.216,1.216,0,0,0-1.753,1.685l7.557,7.852H1.216a1.216,1.216,0,0,0,0,2.432H24.334L16.777,28.02a1.216,1.216,0,0,0,1.752,1.686L28.068,19.8a1.216,1.216,0,0,0,0-1.685Z" fill="#fff"/>
    </g>
  </g>
</svg>
